HIERARCHY
ROOT Hips
{
  OFFSET 3.13124 94.3669 -3.18751
  CHANNELS  6 Xposition Yposition Zposition Zrotation Xrotation Yrotation
  JOINT LeftUpLeg
  {
    OFFSET 8.64259 1.95398 -2.38835
    CHANNELS 3 Zrotation Xrotation Yrotation
    JOINT LeftLeg
    {
      OFFSET 43.7702 0 0
      CHANNELS 3 Zrotation Xrotation Yrotation
      JOINT LeftFoot
      {
        OFFSET 40.6238 0 0
        CHANNELS 3 Zrotation Xrotation Yrotation
        JOINT LeftToeBase
        {
          OFFSET 12.7242 0 0
          CHANNELS 3 Zrotation Xrotation Yrotation
          End Site
          {
            OFFSET 0 0 0
          }
        }
      }
    }
  }
  JOINT RightUpLeg
  {
    OFFSET -8.2249 1.95398 -2.59336
    CHANNELS 3 Zrotation Xrotation Yrotation
    JOINT RightLeg
    {
      OFFSET 43.5653 0 0
      CHANNELS 3 Zrotation Xrotation Yrotation
      JOINT RightFoot
      {
        OFFSET 40.6238 0 0
        CHANNELS 3 Zrotation Xrotation Yrotation
        JOINT RightToeBase
        {
          OFFSET 12.7242 0 0
          CHANNELS 3 Zrotation Xrotation Yrotation
          End Site
          {
            OFFSET 0 0 0
          }
        }
      }
    }
  }
  JOINT Spine
  {
    OFFSET 0.165834 0.87714 6.61349
    CHANNELS 3 Zrotation Xrotation Yrotation
    JOINT Spine1
    {
      OFFSET 7.38962 1.71661e-005 0
      CHANNELS 3 Zrotation Xrotation Yrotation
      JOINT Spine2
      {
        OFFSET 11.9445 1.14441e-005 0
        CHANNELS 3 Zrotation Xrotation Yrotation
        JOINT Spine3
        {
          OFFSET 14.7254 4.19617e-005 0
          CHANNELS 3 Zrotation Xrotation Yrotation
          JOINT Spine4
          {
            OFFSET 10.9679 0 0
            CHANNELS 3 Zrotation Xrotation Yrotation
            JOINT RightShoulder
            {
              OFFSET 2.46616 -1.6653 3.69651
              CHANNELS 3 Zrotation Xrotation Yrotation
              JOINT RightArm
              {
                OFFSET 13.0012 0 0
                CHANNELS 3 Zrotation Xrotation Yrotation
                JOINT RightForeArm
                {
                  OFFSET 28.7848 1.52588e-005 0
                  CHANNELS 3 Zrotation Xrotation Yrotation
                  JOINT RightHand
                  {
                    OFFSET 26.5688 1.52588e-005 0
                    CHANNELS 3 Zrotation Xrotation Yrotation
                    End Site
                    {
                      OFFSET 0 0 0
                    }
                  }
                }
              }
            }
            JOINT LeftShoulder
            {
              OFFSET 2.38034 -1.29275 -3.75231
              CHANNELS 3 Zrotation Xrotation Yrotation
              JOINT LeftArm
              {
                OFFSET 16.3182 6.10352e-005 0
                CHANNELS 3 Zrotation Xrotation Yrotation
                JOINT LeftForeArm
                {
                  OFFSET 27.0901 0 0
                  CHANNELS 3 Zrotation Xrotation Yrotation
                  JOINT LeftHand
                  {
                    OFFSET 24.5451 1.52588e-005 0
                    CHANNELS 3 Zrotation Xrotation Yrotation
                    End Site
                    {
                      OFFSET 0 0 0
                    }
                  }
                }
              }
            }
            JOINT Neck
            {
              OFFSET 5.0226 -0.0266342 0
              CHANNELS 3 Zrotation Xrotation Yrotation
              JOINT Head
              {
                OFFSET 6.69363 2.86102e-005 0
                CHANNELS 3 Zrotation Xrotation Yrotation
                End Site
                {
                  OFFSET 0 0 0
                }
              }
            }
          }
        }
      }
    }
  }
}
MOTION
Frames:	7
Frame Time:	0.0333333
36.6327 98.96 24.9845 106.078 -66.1996 103.86 -169.887 10.0774 95.821 -0.561706 -5.66313 2.03122 15.8474 -1.63812 -4.43078 28.7808 5.58069e-006 -1.31614e-007 166.273 -4.08421 85.0111 -18.4996 -28.6879 -7.39735 51.5886 23.2271 17.0884 28.7808 1.46437e-005 2.8166e-005 -0.372825 7.84852 -89.4726 11.1691 -0.827125 0.494842 -0.501734 -0.804544 0.530763 -23.0388 -0.937614 0.223365 -3.02612 -0.937609 0.223356 85.253 -27.143 -117.542 42.7283 5.54023 -25.6866 0.376884 5.5818 -103.612 -5.37983 -0.320005 -0.0162406 -96.9646 -32.9303 61.7675 -31.391 13.6114 -47.891 28.2568 2.83389 -73.5152 5.68541 -2.01057 -31.1101 -17.9827 -10.2102 -15.7597 -9.75648 -10.3351 -4.72089 
39.8328 99.8308 25.8867 109.353 -73.3218 105.986 -170.278 8.79435 94.8291 -2.48352 -10.0381 2.12282 16.3029 -3.02929 -6.27057 28.7808 5.58069e-006 -1.31614e-007 164.913 -2.82806 81.7135 -15.9712 -28.9192 -7.87575 43.1874 24.7275 21.2079 28.7808 1.46437e-005 2.8166e-005 -0.579736 7.73995 -89.0117 11.374 -1.18513 0.352168 -0.296427 -1.16848 0.403981 -22.8359 -1.23618 -0.0203475 -2.82329 -1.23617 -0.0203577 86.0714 -27.0334 -115.965 42.8776 6.38391 -27.3169 0.857718 5.27491 -104.439 -5.37983 -0.320005 -0.0162406 -95.6529 -30.798 63.1091 -31.8126 12.6795 -49.0474 24.0148 1.79967 -75.1374 8.73095 -2.83945 -32.1433 -18.423 -10.6045 -15.8945 -10.5962 -10.8478 -3.64337 
42.6926 100.389 26.6277 114.57 -79.9321 110.735 -170.271 9.10693 94.31 -5.42127 -9.59496 2.33964 15.5382 -4.53136 -8.45196 28.7808 5.58069e-006 -1.31614e-007 164.587 -0.719042 79.9807 -14.2137 -27.2239 -7.86624 35.9905 24.2845 23.6948 28.7808 1.46437e-005 2.8166e-005 -0.713858 7.65682 -88.6358 11.5224 -1.44217 0.0429671 -0.147759 -1.43888 0.106403 -22.689 -1.3884 -0.392534 -2.67636 -1.3884 -0.392542 86.5894 -26.1353 -115.394 42.6272 8.63316 -27.4583 1.70092 5.28563 -105.475 -5.37983 -0.320005 -0.0162406 -94.4603 -28.0197 64.0091 -33.4664 10.7396 -50.2339 22.5266 1.06824 -75.1154 6.66762 -2.79521 -37.6059 -19.334 -10.9052 -15.3095 -10.4455 -11.2423 -4.1709 
45.2651 100.675 27.2749 140.151 -85.9085 136.01 -169.878 9.53611 94.2255 -8.38449 -8.04892 2.55244 14.3932 -7.45254 -12.7473 28.7808 5.58069e-006 -1.31614e-007 164.748 1.28968 78.8414 -12.4712 -22.7153 -7.47867 29.7365 24.7702 26.9443 28.7808 1.46437e-005 2.8166e-005 -0.806288 7.70231 -88.1968 11.4096 -1.55007 -0.275445 -0.260489 -1.5607 -0.206938 -22.8017 -1.39563 -0.728653 -2.78904 -1.39562 -0.728653 87.3144 -25.1553 -114.419 43.2955 11.3628 -28.2709 2.95433 4.71798 -107.266 -5.37983 -0.320005 -0.0162406 -92.6067 -24.9865 66.1774 -33.6755 9.93322 -52.5434 18.1681 0.612211 -76.6043 8.7253 -3.34888 -36.9946 -18.8488 -11.061 -15.7274 -10.4803 -11.3648 -3.76993 
47.7579 100.978 27.8818 -124.299 -86.043 -128.689 -169.665 8.87484 93.8354 -9.01427 -6.45818 2.49683 13.8915 -8.75571 -14.6974 28.7808 5.58069e-006 -1.31614e-007 164.812 3.42358 78.0585 -10.8599 -18.7309 -7.32786 22.0258 24.0174 29.962 28.7808 1.46437e-005 2.8166e-005 -0.927204 7.82504 -88.0962 11.1537 -1.6661 -0.439533 -0.516228 -1.68382 -0.365763 -23.0577 -1.45696 -0.920026 -3.04506 -1.45696 -0.920025 87.9723 -24.9646 -113.141 43.0146 13.4957 -29.6864 4.21524 4.10864 -112.287 -5.37983 -0.320005 -0.0162406 -90.83 -21.5072 68.1955 -35.2161 8.31747 -55.0326 17.7906 0.682604 -77.1434 9.64379 -3.83624 -38.8979 -18.3606 -10.8194 -18.5079 -9.44583 -11.3244 -0.657047 
50.0027 101.192 28.4353 -97.8983 -81.0253 -102.508 -169.768 8.91495 93.236 -10.2119 -5.07525 2.67271 13.3259 -9.53245 -15.973 28.7808 5.58069e-006 -1.31614e-007 165.119 5.6699 77.6135 -9.53607 -13.4531 -6.92255 17.3833 22.8458 31.085 28.7808 1.46437e-005 2.8166e-005 -1.03449 7.98004 -87.8563 10.8326 -1.66601 -0.512189 -0.837305 -1.68694 -0.438352 -23.3784 -1.43505 -0.989288 -3.36576 -1.43504 -0.989292 88.6661 -25.6579 -111.341 45.0429 18.2676 -33.3694 5.51645 1.74099 -108.217 -5.37983 -0.320005 -0.0162406 -89.5426 -17.2083 68.9578 -38.4507 6.10015 -57.1995 18.2556 0.94479 -78.1574 10.4369 -4.01564 -38.3354 -17.896 -10.315 -23.6844 -7.89502 -11.1027 5.02013 
52.0173 101.217 28.8567 -91.5103 -75.141 -96.2958 -169.917 9.54427 92.5909 -12.6636 -6.5094 2.51304 13.989 -9.66872 -15.9655 28.7808 5.58069e-006 -1.31614e-007 165.786 8.03444 77.3182 -8.91633 -9.02573 -6.64762 14.6385 22.9939 32.8783 28.7808 1.46437e-005 2.8166e-005 -1.20032 8.1716 -87.4491 10.4251 -1.69887 -0.728557 -1.24486 -1.72929 -0.653063 -23.7849 -1.40138 -1.2055 -3.77227 -1.40139 -1.20551 88.7905 -24.9122 -111.442 44.4481 19.6053 -35.7854 5.69922 1.12471 -107.416 -5.37983 -0.320005 -0.0162406 -88.8301 -15.3871 69.7021 -40.0259 3.66243 -58.6647 17.2896 1.26241 -79.537 12.9042 -4.54079 -36.6734 -17.3883 -9.21088 -24.9031 -6.84405 -9.97796 8.50192 
